<svg viewBox="0 0 512 512" xmlns="http://www.w3.org/2000/svg" role="img" aria-label="DevMarket Logo">
  <defs>
    <linearGradient id="g1" x1="0%" y1="0%" x2="100%" y2="100%">
      <stop offset="0%" stop-color="#00BFFF"/>
      <stop offset="100%" stop-color="#1E3A8A"/>
    </linearGradient>
    <linearGradient id="g2" x1="0%" y1="0%" x2="100%" y2="0%">
      <stop offset="0%" stop-color="#7C3AED"/>
      <stop offset="100%" stop-color="#A855F7"/>
    </linearGradient>
  </defs>

  <rect x="96" y="76" width="152" height="152" rx="20" fill="url(#g1)"/>
  <rect x="264" y="76" width="152" height="152" rx="20" fill="#1E3A8A"/>
  <rect x="96" y="244" width="152" height="152" rx="20" fill="#7C3AED"/>
  <rect x="264" y="244" width="152" height="152" rx="20" fill="#A855F7"/>

  <polygon points="200,200 200,312 312,256" fill="#FFFFFF" opacity="0.9"/>

  <g stroke="#00D9FF" stroke-width="3" stroke-linecap="round">
    <line x1="256" y1="60" x2="256" y2="100"/>
    <line x1="290" y1="85" x2="310" y2="110"/>
    <line x1="222" y1="85" x2="202" y2="110"/>
    <line x1="60" y1="256" x2="100" y2="256"/>
    <line x1="452" y1="256" x2="412" y2="256"/>
    <line x1="256" y1="412" x2="256" y2="452"/>
    <line x1="290" y1="427" x2="310" y2="402"/>
    <line x1="222" y1="427" x2="202" y2="402"/>
  </g>

  <circle cx="256" cy="60" r="6" fill="#00D9FF"/>
  <circle cx="290" cy="85" r="5" fill="#00D9FF"/>
  <circle cx="222" cy="85" r="5" fill="#00D9FF"/>
  <circle cx="60" cy="256" r="6" fill="#00D9FF"/>
  <circle cx="452" cy="256" r="6" fill="#00D9FF"/>
  <circle cx="256" cy="452" r="6" fill="#00D9FF"/>
  <circle cx="290" cy="427" r="5" fill="#00D9FF"/>
  <circle cx="222" cy="427" r="5" fill="#00D9FF"/>
</svg>
